PathFileType	4	(X/Y/Z)	C:/Users/beibeiliu/ov580/test_trc/User3\sequence.40_training_dense_left.trc
DataRate	CameraRate	NumFrames	NumMarkers	Units	OrigDataRate	OrigDataStartFrame	OrigNumFrames
120	120	21	19	mm	120	49	72
Frame#	Time	ThumbCMC			ThumbMCP			ThumbIP			ThumbTip			IndexMCP			IndexPIP			IndexTip			MiddleMCP			MiddlePIP			MiddleTip			RingMCP			RingPIP			RingTip			PinkyMCP			PinkyPIP			PinkyTip			BackHand1			BackHand2			BackHand3	
		X0	Y0	Z0	X1	Y1	Z1	X2	Y2	Z2	X3	Y3	Z3	X4	Y4	Z4	X5	Y5	Z5	X6	Y6	Z6	X7	Y7	Z7	X8	Y8	Z8	X9	Y9	Z9	X10	Y10	Z10	X11	Y11	Z11	X12	Y12	Z12	X13	Y13	Z13	X14	Y14	Z14	X15	Y15	Z15	X16	Y16	Z16	X17	Y17	Z17	X18	Y18	Z18	
48	0.4	-190.652	-3.7724	35.6068	-178.164	19.0397	9.89208	-163.234	33.4496	-17.3197	-139.181	27.3974	-28.605	-187.158	-25.0178	-40.3663	-181.676	-10.5826	-66.1145	-170.641	12.1275	-80.1784	-165.596	-45.2541	-39.7733	-162.458	-37.1377	-73.2929	-150.196	-13.629	-97.2474	-146.878	-44.9091	-31.3431	-131.145	-35.8794	-58.8022	-123.963	-4.57954	-68.2426	-118.371	-38.3746	-18.8708	-108.518	-20.6513	-35.0129	-102.88	0.0889746	-40.3873	-154.19	-56.8255	20.5984	-157.299	-57.5019	45.3229	-184.471	-45.5592	30.8774	
49	0.408333	-199.413	-8.73885	32.3817	-194.333	12.6292	11.1733	-185.963	29.4213	-14.1775	-166.332	35.3564	-32.3771	-188.435	-30.7189	-42.3578	-186.185	-14.0229	-67.329	-178.548	7.32641	-80.3816	-167.52	-49.7338	-41.7048	-161.491	-42.2223	-71.6254	-148.223	-18.8507	-97.4734	-144.933	-50.6444	-32.5724	-135.557	-40.1942	-60.4566	-123.83	-15.4777	-73.5793	-124.563	-41.2936	-14.3159	-111.739	-27.6309	-34.3282	-99.3568	-4.73373	-46.1406	-154.844	-60.1126	17.4474	-158.401	-58.3272	47.0817	-186.197	-49.5298	29.4535	
50	0.416667	-203.633	-18.66	39.2992	-206.569	4.94082	13.0019	-202.07	22.5185	-9.7803	-189.71	35.3284	-30.1031	-193.439	-37.9047	-36.0581	-188.213	-24.0334	-66.2647	-186.641	-1.77405	-79.7952	-167.655	-54.0191	-39.9621	-163.111	-47.1606	-71.1228	-154.414	-25.8225	-94.4985	-147.677	-53.7938	-29.7145	-135.681	-44.8621	-59.5698	-129.217	-18.9515	-76.7381	-122.452	-41.7466	-17.211	-110.18	-30.2327	-32.5507	-105.877	-11.3835	-47.8872	-154.276	-63.1033	20.8647	-154.323	-64.9707	47.6254	-185.692	-57.1099	30.6237	
51	0.425	-205.182	-23.6175	40.9146	-211.603	1.73016	16.4903	-204.195	17.3955	-8.14831	-189.707	29.5527	-30.464	-192.691	-44.1674	-36.9853	-192.628	-29.352	-63.7025	-187.504	-5.35001	-80.252	-168.964	-57.729	-38.3685	-168.056	-52.0039	-67.6413	-156.253	-25.5985	-96.3084	-150.457	-55.9135	-30.4891	-141.847	-47.1106	-59.3165	-132	-24.332	-74.3056	-123.185	-44.0438	-13.7679	-115.565	-28.5638	-36.1212	-114.981	-8.49847	-48.4046	-154.907	-64.9731	20.1471	-151.498	-66.2499	49.9666	-187.66	-61.8836	31.4352	
52	0.433333	-200.908	-26.9989	38.4163	-205.279	-2.24116	16.6953	-197.236	15.9613	-15.6994	-176.678	22.4345	-28.821	-191.01	-47.0531	-34.4917	-192.193	-32.8857	-61.7059	-188.229	-7.63095	-77.7775	-167.274	-60.2744	-40.7797	-168.586	-53.0801	-67.4356	-164.321	-26.6048	-93.4744	-146.341	-55.4613	-27.3671	-143.41	-46.0211	-57.3787	-136.116	-19.2022	-72.8575	-125.824	-42.184	-15.4419	-121.149	-25.1727	-36.6119	-118.585	-0.725401	-48.6532	-154.127	-64.3437	19.971	-150.375	-68.2932	53.2587	-186.881	-63.4773	30.8179	
53	0.441667	-200.967	-24.0257	40.8023	-196.919	-0.017897	9.08893	-182.705	14.1547	-17.0174	-159.803	14.8167	-25.9256	-192.759	-47.4216	-32.9466	-194.441	-32.0033	-61.5387	-193.039	-10.0331	-75.4224	-172.696	-59.6918	-39.5661	-168.386	-51.6456	-69.7106	-162.957	-26.8191	-92.2973	-153.395	-54.5627	-29.8961	-144.759	-43.4845	-55.3544	-142.715	-17.0696	-69.0147	-133.008	-41.5443	-16.1293	-130.056	-22.9941	-36.2875	-129.367	1.34436	-44.5428	-152.081	-66.6335	24.9624	-152.946	-67.471	51.8448	-188.754	-63.1881	31.6347	
54	0.45	-200.286	-22.4657	35.8162	-191.818	0.734779	11.0819	-174.824	12.9649	-15.7275	-151.481	11.8979	-24.3572	-193.477	-46.0689	-34.0053	-194.473	-29.2703	-64.0702	-192.202	-8.18179	-75.7236	-168.773	-60.1237	-36.4728	-168.66	-50.9166	-69.1353	-163.712	-26.3582	-92.8766	-149.533	-53.5299	-27.4571	-142.243	-39.8016	-55.9922	-142.816	-12.6942	-65.429	-133.086	-39.4509	-17.7581	-129.863	-21.3913	-34.7354	-132.277	4.38894	-39.5904	-154.335	-65.8501	23.0708	-153.275	-64.5115	53.7627	-189.784	-60.0195	33.3353	
55	0.458333	-198.402	-19.53	36.867	-189.771	4.84089	8.27997	-171.34	13.0681	-13.5801	-149.243	16.3669	-29.1447	-194.361	-44.3409	-32.6768	-194.096	-28.6867	-62.1046	-189.522	-5.82509	-77.3113	-174.405	-59.295	-36.6088	-172.083	-52.3566	-69.3727	-161.902	-31.26	-90.7947	-155.475	-55.0815	-25.8951	-143.884	-42.0658	-57.783	-139.928	-16.2212	-67.0742	-131.997	-44.651	-15.6026	-128.445	-29.2355	-34.0732	-124.359	1.7577	-41.1665	-161.057	-64.1948	23.5572	-161.515	-65.4914	51.0597	-192.586	-59.8977	35.6585	
56	0.466667	-196.18	-8.32129	33.9085	-184.227	15.3364	9.1019	-167.24	25.4921	-15.4411	-147.763	27.186	-29.5511	-197.001	-33.5199	-36.3415	-194.019	-19.804	-63.0651	-184.834	-1.22571	-79.352	-179.23	-54.0077	-39.8438	-172.498	-47.1918	-70.6913	-157.557	-28.1137	-94.5311	-158.875	-55.5592	-26.4186	-145.997	-48.1914	-58.0279	-135.928	-23.8842	-72.4198	-137.693	-52.789	-12.1111	-126.935	-43.9827	-34.2194	-113.488	-19.3009	-46.607	-164.821	-65.4816	19.0507	-167.229	-66.3613	53.0755	-197.613	-47.2852	30.0596	
57	0.475	-179.461	8.96995	38.6719	-162.406	26.5674	15.0454	-144.084	33.5683	-11.5321	-128.532	34.9958	-27.0146	-188.959	-8.98223	-38.8208	-180.179	-1.37636	-64.5009	-164.724	12.2062	-82.7319	-182.691	-36.6431	-40.8829	-176.76	-32.6345	-67.814	-154.605	-20.4441	-97.3333	-167.639	-48.4099	-32.5184	-157.982	-47.293	-59.4355	-139.239	-37.3679	-76.0286	-147.274	-58.8028	-13.8359	-133.334	-58.3136	-38.4766	-116.543	-49.2243	-53.9587	-175.29	-53.5713	20.6465	-182.197	-52.0506	49.0958	-197.237	-26.1651	31.4427	
58	0.483333	-156.589	26.0698	41.6179	-135.085	33.7433	18.9448	-117.678	41.9232	-2.38908	-101.631	41.4861	-23.3774	-173.794	13.2653	-34.3463	-164.536	18.7833	-61.3604	-144.877	22.572	-85.4762	-180.175	-12.8586	-38.5949	-171.801	-9.61039	-72.2169	-153.396	-8.08763	-99.5016	-174.936	-32.0704	-29.7604	-167.737	-34.7771	-59.8632	-152.388	-34.5742	-79.8285	-165.079	-52.5352	-15.6712	-158.157	-55.4483	-38.7711	-140.464	-58.2798	-60.5383	-185.052	-29.8485	16.8043	-188.063	-33.057	49.4382	-188.475	-0.688887	30.2476	
59	0.491667	-130.752	25.7608	45.8626	-109.255	27.1887	23.1378	-90.1704	30.9427	2.03587	-76.0684	27.6871	-18.788	-150.586	30.6056	-35.1088	-138.563	34.1136	-60.9007	-129.37	28.4406	-80.4126	-173.14	10.2167	-40.118	-166.502	13.0804	-66.5879	-154.045	4.1007	-97.0019	-178.84	-9.77027	-32.5695	-174.573	-10.9583	-60.5051	-165.742	-20.1277	-86.7172	-180.348	-33.1531	-14.3854	-179.715	-39.1928	-43.4425	-171.489	-45.1786	-61.3181	-187.471	-10.5783	22.2316	-190.303	-10.2169	49.3955	-169.311	22.4052	33.1596	
60	0.5	-113.143	15.2804	47.818	-93.5611	11.8643	26.3442	-70.4484	11.1416	1.98864	-60.1257	6.23375	-14.5187	-132	28.6851	-27.7013	-122.67	30.3509	-55.7839	-113.324	24.1578	-83.6756	-155.384	25.0224	-36.0765	-153.541	23.7336	-62.9429	-143.828	18.0912	-98.4576	-174.625	7.93012	-29.0758	-176.616	5.93979	-56.8414	-172.073	0.503529	-81.6494	-185.588	-11.0253	-13.9046	-192.818	-15.379	-37.604	-195.042	-20.9428	-60.1993	-177.215	10.724	20.0946	-178.925	9.31768	53.4519	-152.029	24.0763	35.5553	
61	0.508333	-103.365	3.01446	47.1966	-83.0445	-3.84655	28.399	-63.2399	-9.75802	7.5151	-49.0683	-15.8976	-11.6674	-121.473	21.394	-28.2283	-111.257	20.7481	-56.6402	-100.979	14.8081	-80.723	-144.246	24.4245	-37.1042	-143.375	23.2592	-65.8508	-138.353	17.747	-97.0286	-169.988	14.0779	-26.2516	-169.884	15.8193	-53.9899	-174.368	9.64648	-81.5519	-188.228	2.22161	-12.7595	-193.536	1.61527	-35.6124	-196.938	-2.23545	-56.9957	-168.52	18.2444	21.5288	-168.35	17.5162	51.7709	-132.938	25.7162	38.4552	
62	0.516667	-102.157	-8.59376	48.4691	-82.2561	-17.6459	25.8851	-66.4925	-26.4676	8.68826	-52.3669	-34.4405	-12.0782	-114.925	11.363	-31.3421	-106.817	8.58309	-55.3513	-103.454	0.462598	-83.5056	-139.507	18.826	-34.8475	-136.534	17.6255	-65.979	-139.387	13.1437	-95.1895	-165.468	15.1985	-27.1895	-165.532	16.6939	-51.4108	-172.456	11.3537	-80.903	-184.503	7.1527	-9.70071	-192.967	8.02467	-31.9271	-200.765	7.93894	-54.8947	-159.251	20.7765	27.7911	-158.825	19.1076	53.9725	-127.432	17.9498	37.2175	
63	0.525	-105.023	-13.6427	47	-85.2261	-23.9719	27.6504	-69.7079	-34.0822	7.17573	-57.6679	-44.4367	-11.609	-117.331	3.71767	-30.83	-110.453	-0.813742	-58.9989	-106.456	-9.08969	-83.893	-142.995	14.0453	-36.7967	-140.55	11.7632	-63.0195	-140.162	4.71387	-95.6729	-165.586	11.6225	-23.5263	-168.379	12.0448	-52.3299	-176.659	7.81936	-77.516	-183.436	5.72849	-6.74705	-195.564	6.91191	-28.7923	-199.892	6.74042	-53.1094	-158.034	18.1204	26.2048	-162.678	20.9578	56.3471	-126.237	15.5008	34.4333	
64	0.533333	-109.445	-13.7642	45.2798	-87.974	-26.3869	30.6635	-68.4226	-37.0641	4.71198	-61.5709	-47.8789	-10.1561	-121.874	0.610365	-33.2588	-114.74	-5.17879	-60.3897	-109.997	-13.3849	-80.5295	-144.405	10.6161	-35.9082	-146.47	7.12264	-65.8541	-148.112	-0.333028	-96.296	-171.728	9.25464	-25.8294	-174.181	8.02772	-50.3414	-179.301	1.80905	-77.8105	-186.615	1.85668	-8.28538	-197.963	3.14557	-29.3979	-208.75	2.3263	-48.9183	-163.42	16.5064	26.013	-163.467	17.2499	54.9455	-129.826	11.1459	35.0747	
65	0.541667	-109.427	-14.9696	46.3703	-87.6931	-26.3278	25.9014	-72.2457	-38.1382	10.4713	-60.4931	-47.899	-8.32848	-122.501	-0.608766	-27.5326	-117.686	-6.53004	-58.3757	-113.381	-14.6395	-83.7733	-146.092	8.06167	-35.5485	-150.564	4.61464	-64.2813	-152.684	-2.25404	-91.8069	-168.754	4.76382	-26.4334	-175.117	3.65355	-52.0087	-183.085	-1.45943	-76.5455	-188.968	-0.511294	-10.273	-202.091	-1.23589	-27.9874	-205.24	-1.65278	-51.1109	-164.951	13.1707	28.4089	-167.481	17.9704	52.992	-134.013	12.2867	36.7615	
66	0.55	-107.249	-16.0461	47.8848	-85.7968	-26.0919	31.4941	-69.9488	-37.5344	9.28315	-57.0917	-47.918	-6.88241	-121.432	-2.00785	-25.9094	-115.772	-6.76657	-55.1619	-112.061	-15.7121	-80.7253	-148.674	6.85919	-34.9796	-145.972	3.61524	-59.3471	-150.941	-6.05749	-93.4225	-170.663	2.89362	-25.1471	-178.036	2.86648	-49.3172	-180.905	-2.9629	-72.8835	-190.082	-3.09165	-4.28273	-198.564	-4.12529	-26.7162	-210.64	-6.33533	-47.5611	-164.049	12.688	29.2392	-167.065	13.7606	54.3491	-132.752	11.312	38.3174	
67	0.558333	-105.304	-15.4483	48.4056	-85.9759	-26.5627	32.0307	-67.0482	-36.9561	9.26517	-59.7151	-47.5718	-10.0279	-124.189	-2.5719	-26.7468	-116.16	-7.55733	-53.3599	-111.63	-14.6862	-78.4677	-149.538	4.27785	-32.5819	-149.283	1.32936	-61.6428	-152.064	-6.50724	-90.5251	-170.553	1.45915	-23.4689	-176.394	-0.317188	-50.894	-180.529	-5.79506	-75.1442	-191.492	-4.55452	-7.87822	-201.162	-6.10217	-28.5062	-207.992	-10.2628	-51.3525	-165.16	12.3077	29.2386	-165.243	11.6391	54.3	-132.593	9.52281	38.1718	
68	0.566667	-105.206	-16.2787	49.9331	-84.3959	-26.7526	32.2562	-70.5895	-35.9129	11.3949	-57.3105	-47.0142	-7.36679	-121.932	-2.7583	-29.1669	-116.195	-7.17595	-58.1169	-115.887	-14.3799	-79.6818	-149.577	5.32011	-32.7122	-150.712	1.44665	-58.9754	-149.281	-7.1388	-89.78	-168.579	0.973999	-21.7053	-175.655	-0.602947	-48.424	-183.487	-5.41313	-71.8138	-192.858	-5.21557	-5.27323	-199.176	-6.4187	-27.877	-205.148	-10.0684	-48.9758	-164.528	10.5932	26.064	-167.5	13.4389	55.8993	-134.155	8.22573	37.3885	
